<?xml version="1.0" encoding="utf-8"?>
<!-- Generator: Adobe Illustrator 24.1.3, SVG Export Plug-In . SVG Version: 6.00 Build 0)  -->
<svg version="1.1" id="Layer_1" xmlns="http://www.w3.org/2000/svg" xmlns:xlink="http://www.w3.org/1999/xlink" x="0px" y="0px"
	 viewBox="0 0 250 250" style="enable-background:new 0 0 250 250;" xml:space="preserve">
<style type="text/css">
	.st0{fill:#010101;}
</style>
<g>
	<path class="st0" d="M222.2,153.6V57.1c0-0.1,0-0.2,0-0.3c0-0.3-0.1-0.6-0.1-0.9c0-0.2,0-0.4-0.1-0.5c0-0.2,0-0.4-0.1-0.6v-0.1
		c-0.1-0.2-0.1-0.3-0.2-0.5l-0.2-0.4c-0.1-0.2-0.2-0.6-0.3-0.7c0-0.1-0.1-0.1-0.1-0.1l0,0c-0.2-0.3-0.3-0.5-0.6-0.7
		c-0.1-0.2-0.2-0.3-0.4-0.5l-0.1-0.1c0-0.1,0-0.1-0.1-0.1c-0.3-0.4-0.7-0.7-1.1-0.8l-0.4-0.2l0,0L115.8,8.1c-0.2,0-0.4-0.1-0.6-0.1
		c-0.4-0.2-0.7-0.3-1.1-0.3h-0.2h-0.2c-0.3,0-0.6,0.1-0.9,0.2c-0.2,0-0.4,0.1-0.7,0.2l-0.7,0.3L61.5,29l-1.3,0.6l-50,20.6l-0.6,0.3
		c-0.5,0.2-1,0.5-1.5,0.8C8,51.3,8,51.4,8,51.4l0,0c-0.5,0.3-0.8,0.8-1,1.4c-0.5,0.6-0.8,1.4-1,2.3c-0.1,0.6-0.2,1.3-0.2,2v141
		c0,3,1.6,5.7,3.9,6.6l102.2,42.2c0.1,0.1,0.2,0.2,0.3,0.1c1.2,0.6,2.5,0.6,3.6,0l0.3-0.1l55.1-22.8c11.5,23.2,36,30.4,54.7,16.1
		c18.7-14.3,24.5-44.6,13-67.8C235,164.2,229.1,157.7,222.2,153.6z M165.3,70.8L80.7,35.9l33.2-13.7l84.7,34.9L165.3,70.8z
		 M62.6,43.3l84.7,34.9L114,92L29.4,57L62.6,43.3z M119.7,230.6V104.4L166.6,85c0.3,0,0.6-0.1,0.8-0.3l43.4-17.9v82.5
		c-1.9-0.4-3.8-0.6-5.7-0.6c-22,0-39.9,22.1-39.9,49.3l0,0c0,4.4,0.5,8.9,1.5,13.1L119.7,230.6z M216.5,205.1h-5.7v7
		c0,3.9-2.5,7-5.7,7c-3.1,0-5.7-3.2-5.7-7v-7h-5.7c-3.1,0-5.7-3.2-5.7-7s2.5-7,5.7-7h5.7v-7c0-3.9,2.5-7,5.7-7c3.1,0,5.7,3.2,5.7,7
		v7h5.7c3.1,0,5.7,3.2,5.7,7S219.6,205.1,216.5,205.1z"/>
</g>
<image style="overflow:visible;enable-background:new    ;" width="211" height="232" xlink:href="Untitled.png"  transform="matrix(0.3545 0 0 0.3904 168.2 152.4174)">
</image>
</svg>
